<svg width="70" height="70" fill="none" xmlns="http://www.w3.org/2000/svg"><path d="M26.367 62.825c2.8.846 5.629 1.342 8.633 1.342A29.167 29.167 0 1 0 5.833 35c0 12.396 7.788 23.042 18.784 27.242-.263-2.275-.525-6.038 0-8.634L27.97 39.2s-.846-1.692-.846-4.375c0-4.025 2.508-7.03 5.367-7.03 2.508 0 3.675 1.838 3.675 4.2 0 2.51-1.663 6.097-2.509 9.538-.495 2.859 1.517 5.367 4.434 5.367 5.191 0 9.216-5.542 9.216-13.358 0-7-5.016-11.784-12.22-11.784-8.226 0-13.067 6.125-13.067 12.571 0 2.508.816 5.046 2.158 6.709.263.175.263.408.175.845l-.846 3.18c0 .495-.32.67-.816.32-3.734-1.633-5.892-6.941-5.892-11.229 0-9.217 6.533-17.587 19.133-17.587 10.034 0 17.85 7.204 17.85 16.77 0 10.034-6.212 18.084-15.108 18.084-2.83 0-5.6-1.517-6.592-3.296l-1.954 6.913c-.67 2.508-2.508 5.862-3.762 7.875v-.088z" fill="#CCC"/></svg>