<svg width="70" height="70" fill="none" xmlns="http://www.w3.org/2000/svg"><path d="M57.263 23.325c.038.51.038 1.018.038 1.525 0 15.531-11.821 33.428-33.425 33.428-6.656 0-12.84-1.928-18.043-5.276.945.108 1.855.146 2.838.146a23.537 23.537 0 0 0 14.587-5.02 11.772 11.772 0 0 1-10.988-8.146c.727.108 1.456.18 2.22.18 1.053 0 2.112-.145 3.095-.399a11.746 11.746 0 0 1-9.421-11.53v-.145a11.855 11.855 0 0 0 5.308 1.49 11.73 11.73 0 0 1-5.238-9.782c0-2.182.58-4.183 1.598-5.927a33.416 33.416 0 0 0 24.226 12.294 13.353 13.353 0 0 1-.292-2.692 11.743 11.743 0 0 1 11.749-11.749c3.383 0 6.437 1.418 8.583 3.71a23.208 23.208 0 0 0 7.455-2.838 11.725 11.725 0 0 1-5.165 6.475 23.55 23.55 0 0 0 6.764-1.82 25.216 25.216 0 0 1-5.89 6.076z" fill="#CCC"/></svg>