<svg width="170" height="170" fill="none" xmlns="http://www.w3.org/2000/svg"><path d="M76.523 103.136h16.95-16.95zM85 52.355v3.627-3.627zm23.084 9.561-2.565 2.565 2.565-2.565zM117.645 85h-3.627 3.627zm-61.663 0h-3.627 3.627zm8.499-20.52-2.565-2.564 2.565 2.565zm7.693 33.346a18.136 18.136 0 1 1 25.652 0l-1.988 1.984a12.242 12.242 0 0 0-3.584 8.655v1.926A7.252 7.252 0 0 1 85 117.645a7.253 7.253 0 0 1-7.254-7.254v-1.926c0-3.247-1.292-6.363-3.584-8.655l-1.988-1.984z" stroke="#EC7979" stroke-width="6.833" stroke-linecap="round" stroke-linejoin="round"/><circle cx="85" cy="85" r="45.5" stroke="#EC7979"/></svg>