<svg width="170" height="170" fill="none" xmlns="http://www.w3.org/2000/svg"><path d="M110.573 62c1.97 0 3.859.779 5.252 2.165A7.37 7.37 0 0 1 118 69.39v31.22c0 1.96-.782 3.84-2.175 5.225a7.447 7.447 0 0 1-5.252 2.165H59.427a7.448 7.448 0 0 1-5.252-2.165A7.379 7.379 0 0 1 52 100.61V69.39c0-1.96.783-3.84 2.175-5.225A7.446 7.446 0 0 1 59.427 62h51.146zm0 4.927H59.427c-.657 0-1.286.26-1.75.721a2.457 2.457 0 0 0-.726 1.742v31.22a2.47 2.47 0 0 0 2.476 2.463h51.146c.657 0 1.287-.259 1.751-.721a2.46 2.46 0 0 0 .725-1.742V69.39c0-.653-.261-1.28-.725-1.742a2.482 2.482 0 0 0-1.751-.721zM67.679 93.203h34.659c.627 0 1.231.237 1.689.663a2.454 2.454 0 0 1 .23 3.355c-.395.484-.961.8-1.583.886l-.336.023H67.679a2.482 2.482 0 0 1-1.69-.663 2.459 2.459 0 0 1-.23-3.355c.396-.484.962-.8 1.583-.886l.337-.023h34.659-34.659zm32.183-11.496c.876 0 1.715.346 2.334.962a3.277 3.277 0 0 1 0 4.645 3.309 3.309 0 0 1-4.668 0 3.276 3.276 0 0 1 0-4.645 3.309 3.309 0 0 1 2.334-.962zm-19.788 0a3.31 3.31 0 0 1 2.334.962 3.276 3.276 0 0 1 0 4.645 3.309 3.309 0 0 1-4.668 0 3.276 3.276 0 0 1 0-4.645 3.309 3.309 0 0 1 2.334-.962zm-9.903 0c.876 0 1.715.346 2.334.962a3.276 3.276 0 0 1 0 4.645 3.309 3.309 0 0 1-4.668 0 3.276 3.276 0 0 1 0-4.645 3.31 3.31 0 0 1 2.334-.962zm19.805 0a3.31 3.31 0 0 1 2.334.962 3.276 3.276 0 0 1 0 4.645 3.31 3.31 0 0 1-4.668 0 3.276 3.276 0 0 1 0-4.645 3.309 3.309 0 0 1 2.334-.962zm-24.773-9.853a3.31 3.31 0 0 1 2.334.962 3.277 3.277 0 0 1 0 4.645 3.31 3.31 0 0 1-4.668 0 3.276 3.276 0 0 1 0-4.645 3.31 3.31 0 0 1 2.334-.962zm9.886 0a3.31 3.31 0 0 1 2.334.962 3.276 3.276 0 0 1 0 4.645 3.309 3.309 0 0 1-4.668 0 3.276 3.276 0 0 1 0-4.645 3.31 3.31 0 0 1 2.334-.962zm9.903 0a3.31 3.31 0 0 1 2.334.962 3.277 3.277 0 0 1 0 4.645 3.309 3.309 0 0 1-4.668 0 3.276 3.276 0 0 1 0-4.645 3.31 3.31 0 0 1 2.334-.962zm9.902 0a3.31 3.31 0 0 1 2.334.962 3.277 3.277 0 0 1 0 4.645 3.309 3.309 0 0 1-4.668 0 3.276 3.276 0 0 1 0-4.645 3.31 3.31 0 0 1 2.334-.962zm9.903 0a3.31 3.31 0 0 1 2.334.962c.619.616.967 1.451.967 2.322s-.348 1.707-.967 2.323a3.31 3.31 0 0 1-4.668 0 3.277 3.277 0 0 1 0-4.645 3.308 3.308 0 0 1 2.334-.962z" fill="#EC7979"/><circle cx="85" cy="85" r="45.5" stroke="#EC7979"/></svg>