<svg width="170" height="170" fill="none" xmlns="http://www.w3.org/2000/svg"><path d="M75.73 117.811a2.328 2.328 0 0 1-1.118-1.018 2.396 2.396 0 0 1-.27-1.504l4.212-27.931H67.376a2.278 2.278 0 0 1-1.028-.215 2.319 2.319 0 0 1-.83-.655 2.401 2.401 0 0 1-.456-2.03l6.943-30.642c.122-.528.419-.996.84-1.327.422-.33.942-.503 1.474-.488h23.142a2.28 2.28 0 0 1 1 .227c.313.151.588.371.806.645a2.4 2.4 0 0 1 .463 2.004l-4.004 18.338h10.992c.434-.001.859.122 1.228.356.368.233.664.567.855.964a2.392 2.392 0 0 1-.254 2.357l-30.085 40.071a2.329 2.329 0 0 1-.793.741 2.28 2.28 0 0 1-1.036.296 2.481 2.481 0 0 1-.902-.189zm14.21-39.882 4.629-21.214H76.17l-5.879 25.928H83.97l-3.68 24.231 21.801-28.945H89.94z" fill="#EC7979"/><circle cx="85" cy="85" r="45.5" stroke="#EC7979"/></svg>