<?xml version="1.0" encoding="iso-8859-1"?>
<!-- Generator: Adobe Illustrator 19.0.0, SVG Export Plug-In . SVG Version: 6.00 Build 0)  -->
<svg version="1.1" id="Layer_1" xmlns="http://www.w3.org/2000/svg" xmlns:xlink="http://www.w3.org/1999/xlink" x="0px" y="0px"
	 viewBox="0 0 511.991 511.991" style="enable-background:new 0 0 511.991 511.991;" xml:space="preserve">
<path style="fill:#5D9CEC;" d="M405.242,330.625c0,88.326-71.592,159.918-159.918,159.918c-88.312,0-159.919-71.592-159.919-159.918
	c0-88.312,71.607-159.912,159.919-159.912C333.65,170.712,405.242,242.313,405.242,330.625z"/>
<path style="fill:#4A89DC;" d="M365.946,210.007c-32.218-32.209-75.061-49.959-120.622-49.959c-45.562,0-88.39,17.75-120.607,49.959
	c-32.219,32.227-49.968,75.054-49.968,120.617c0,45.561,17.749,88.404,49.968,120.621c32.218,32.219,75.045,49.953,120.607,49.953
	s88.404-17.734,120.622-49.953c32.218-32.217,49.952-75.061,49.952-120.621C415.898,285.062,398.164,242.234,365.946,210.007z
	 M96.467,341.5h54.249c0.906,22.811,4.531,44.092,9.109,62.639h-44.483C104.514,385.045,98.06,363.764,96.467,341.5z
	 M234.668,181.751v138.436h-62.624c2.703-66.421,30.343-120.561,38.202-134.678C218.215,183.596,226.371,182.329,234.668,181.751z
	 M255.995,181.751c8.281,0.578,16.453,1.844,24.406,3.758c7.859,14.117,35.5,68.256,38.219,134.678h-62.625V181.751z M172.059,341.5
	h62.608v62.639h-52.796C176.888,385.435,173.028,364.185,172.059,341.5z M234.668,425.451v54.061
	c-8.297-0.594-16.453-1.859-24.422-3.766c-4.062-7.312-13.437-25.359-21.921-50.295L234.668,425.451L234.668,425.451z
	 M255.995,425.451h46.328c-8.484,24.951-17.859,42.998-21.922,50.295c-7.953,1.906-16.125,3.172-24.406,3.766V425.451z
	 M255.995,404.139V341.5h62.609c-0.969,22.686-4.828,43.936-9.812,62.639H255.995z M339.932,341.5h54.263
	c-1.594,22.264-8.062,43.545-18.891,62.639h-44.482C335.416,385.592,339.025,364.31,339.932,341.5z M394.211,320.187h-54.264
	c-1.594-41.859-12.359-78.632-21.53-102.835c-3.078-8.14-6.156-15.382-8.984-21.593c15.187,7.226,29.187,17.085,41.437,29.327
	C376.586,250.805,391.758,284.25,394.211,320.187z M139.778,225.085c12.25-12.242,26.266-22.101,41.453-29.327
	c-2.844,6.21-5.922,13.453-9,21.593c-9.156,24.203-19.938,60.976-21.531,102.835H96.435
	C98.904,284.25,114.076,250.805,139.778,225.085z M130.045,425.451h35.796c2.125,6.75,4.297,12.922,6.391,18.453
	c3.078,8.139,6.156,15.389,9,21.592c-15.188-7.234-29.203-17.078-41.453-29.326C136.356,432.732,133.106,429.154,130.045,425.451z
	 M309.433,465.496c2.828-6.203,5.906-13.453,8.984-21.592c2.094-5.531,4.265-11.703,6.405-18.453h35.78
	c-3.062,3.703-6.296,7.281-9.733,10.719C338.619,448.418,324.619,458.262,309.433,465.496z"/>
<path style="fill:#656D78;" d="M383.914,97.01H106.732c-5.891,0-10.672,4.773-10.672,10.664v127.005
	c0,5.891,4.781,10.664,10.672,10.664c25,0,106.311,22.757,135.529,31.531c1,0.297,2.031,0.453,3.062,0.453s2.062-0.156,3.062-0.453
	c29.266-8.773,110.655-31.531,135.528-31.531c5.891,0,10.672-4.773,10.672-10.664V107.674
	C394.586,101.784,389.805,97.01,383.914,97.01z"/>
<path style="fill:#434A54;" d="M482.804,75.135L248.136,11.167c-1.843-0.5-3.78-0.5-5.608,0L7.844,75.135
	C3.219,76.401,0,80.612,0,85.424c0,4.804,3.219,9.023,7.844,10.281l234.684,63.968c0.906,0.25,1.859,0.375,2.797,0.375
	c0.953,0,1.89-0.125,2.812-0.375l234.667-63.968c4.641-1.258,7.859-5.477,7.859-10.281
	C490.663,80.612,487.444,76.401,482.804,75.135z"/>
<g>
	<path style="fill:#F6BB42;" d="M479.991,96.08H234.793c-5.891,0-10.656-4.773-10.656-10.656c0-5.891,4.766-10.664,10.656-10.664
		h245.198c5.891,0,10.672,4.773,10.672,10.664C490.663,91.307,485.882,96.08,479.991,96.08z"/>
	<path style="fill:#F6BB42;" d="M479.991,149.391c-5.875,0-10.655-4.773-10.655-10.664V85.424c0-5.891,4.78-10.664,10.655-10.664
		c5.891,0,10.672,4.773,10.672,10.664v53.303C490.663,144.618,485.882,149.391,479.991,149.391z"/>
</g>
<path style="fill:#FFCE54;" d="M510.194,164.798l-21.328-31.984c-1.969-2.969-5.297-4.75-8.875-4.75c-3.562,0-6.89,1.781-8.858,4.75
	l-21.328,31.984c-1.172,1.75-1.781,3.812-1.781,5.914v53.303c0,5.891,4.766,10.664,10.656,10.664h42.64
	c5.891,0,10.671-4.773,10.671-10.664v-53.303C511.99,168.611,511.366,166.548,510.194,164.798z"/>
<g>
</g>
<g>
</g>
<g>
</g>
<g>
</g>
<g>
</g>
<g>
</g>
<g>
</g>
<g>
</g>
<g>
</g>
<g>
</g>
<g>
</g>
<g>
</g>
<g>
</g>
<g>
</g>
<g>
</g>
</svg>
