<?xml version="1.0" encoding="iso-8859-1"?>
<!-- Generator: Adobe Illustrator 19.0.0, SVG Export Plug-In . SVG Version: 6.00 Build 0)  -->
<svg version="1.1" id="Layer_1" xmlns="http://www.w3.org/2000/svg" xmlns:xlink="http://www.w3.org/1999/xlink" x="0px" y="0px"
	 viewBox="0 0 512.001 512.001" style="enable-background:new 0 0 512.001 512.001;" xml:space="preserve">
<path style="fill:#808285;" d="M446.009,491.805c-9.425,0-17.067-7.641-17.067-17.067v-133.12c0-9.425,7.641-17.067,17.067-17.067
	s17.067,7.641,17.067,17.067v133.12C463.076,484.163,455.435,491.805,446.009,491.805z"/>
<path style="fill:#00D8E0;" d="M299.202,286.436h-85.265c-10.759,0-18.838-9.851-16.738-20.4l10.648-53.476
	c1.589-7.984,8.597-13.733,16.738-13.733h63.966c8.141,0,15.147,5.749,16.738,13.733l10.65,53.476
	C318.042,276.586,309.958,286.436,299.202,286.436z"/>
<path style="fill:#00A2A9;" d="M315.94,266.036l-10.65-53.476c-1.589-7.984-8.597-13.733-16.738-13.733H256v87.609h43.201
	C309.958,286.436,318.042,276.586,315.94,266.036z"/>
<path style="fill:#B9F7F9;" d="M364.226,232.96H148.913c-21.289,0-38.548-17.259-38.548-38.548v-24.03
	c0-9.425,7.641-17.067,17.067-17.067h258.276c9.425,0,17.067,7.641,17.067,17.067v24.03
	C402.774,215.701,385.515,232.96,364.226,232.96z"/>
<g>
	<path style="fill:#00D8E0;" d="M385.707,153.316H256v79.644h108.225c21.289,0,38.548-17.259,38.548-38.548v-24.03
		C402.774,160.957,395.132,153.316,385.707,153.316z"/>
	<path style="fill:#00D8E0;" d="M402.774,187.449H110.365V58.744c0-21.289,17.259-38.548,38.548-38.548h215.313
		c21.289,0,38.548,17.259,38.548,38.548V187.449z"/>
</g>
<path style="fill:#A7A9AC;" d="M65.991,491.805c-9.425,0-17.067-7.641-17.067-17.067v-133.12c0-9.425,7.641-17.067,17.067-17.067
	s17.067,7.641,17.067,17.067v133.12C83.058,484.163,75.417,491.805,65.991,491.805z"/>
<path style="fill:#808285;" d="M463.076,359.254H48.925V252.303h414.151V359.254z"/>
<rect x="256" y="252.303" style="fill:#58595B;" width="207.076" height="106.951"/>
<path style="fill:#A7A9AC;" d="M494.934,286.436H17.515c-8.761,0-16.447-6.418-17.408-15.126
	c-1.136-10.295,6.895-19.008,16.96-19.008h477.418c8.761,0,16.447,6.418,17.408,15.126
	C513.029,277.723,504.998,286.436,494.934,286.436z"/>
<path style="fill:#00A2A9;" d="M364.226,20.196H256v167.253h146.773V58.744C402.774,37.455,385.515,20.196,364.226,20.196z"/>
<path style="fill:#808285;" d="M494.485,252.303H256v34.133h238.933c10.065,0,18.095-8.713,16.96-19.008
	C510.932,258.721,503.246,252.303,494.485,252.303z"/>
<g>
</g>
<g>
</g>
<g>
</g>
<g>
</g>
<g>
</g>
<g>
</g>
<g>
</g>
<g>
</g>
<g>
</g>
<g>
</g>
<g>
</g>
<g>
</g>
<g>
</g>
<g>
</g>
<g>
</g>
</svg>
