<svg width="85" height="31" viewBox="0 0 85 31" fill="none" xmlns="http://www.w3.org/2000/svg">
<path d="M10.2745 0H15.7648L26 31H20.4314L17.8432 23.2718H8.11766L5.56864 31H0L10.2745 0ZM16.8628 19.0366L13.0196 6.24364L9.01962 19.0366H16.8628Z" fill="white"/>
<path d="M31.7899 0L38.5383 11.4394L45.2485 0H51L41.5675 15.7183L50.6933 31H44.9417L38.5383 19.9972L32.0966 31H26.3067L35.4325 15.7183L26 0H31.7899Z" fill="white"/>
<path d="M54 31V0H59V31H54Z" fill="#EC7979"/>
<path d="M85 5.28303H76.1658V31H70.8342V5.28303H62V0H85V5.28303Z" fill="#EC7979"/>
</svg>
