<svg width="70" height="70" fill="none" xmlns="http://www.w3.org/2000/svg"><path fill-rule="evenodd" clip-rule="evenodd" d="M35.075 5.833c-16.068 0-29.09 13.023-29.09 29.091 0 12.851 8.332 23.757 19.894 27.607 1.455.262 1.98-.633 1.98-1.404 0-.69-.023-2.522-.032-4.946-8.093 1.756-9.803-3.903-9.803-3.903-1.318-3.36-3.228-4.255-3.228-4.255-2.64-1.806.201-1.765.201-1.765 2.922.204 4.454 2.999 4.454 2.999 2.596 4.445 6.813 3.161 8.464 2.418.265-1.882 1.024-3.165 1.852-3.891-6.457-.732-13.247-3.229-13.247-14.38 0-3.17 1.134-5.772 2.986-7.802-.294-.737-1.3-3.698.289-7.7 0 0 2.441-.784 7.997 2.979a27.942 27.942 0 0 1 7.28-.98c2.46.003 4.908.333 7.28.98 5.56-3.766 7.998-2.979 7.998-2.979 1.59 4.002.592 6.963.289 7.7 1.866 2.03 2.986 4.63 2.986 7.803 0 11.18-6.795 13.635-13.276 14.355 1.035.899 1.969 2.672 1.969 5.385 0 3.89-.035 7.029-.035 7.982 0 .78.519 1.683 2.003 1.398 11.556-3.856 19.88-14.753 19.88-27.6 0-16.069-13.023-29.092-29.09-29.092z" fill="#CCC"/></svg>