<svg width="70" height="70" fill="none" xmlns="http://www.w3.org/2000/svg"><path d="M61.096 24.223a19.048 19.048 0 0 0-1.222-6.463 13.446 13.446 0 0 0-7.68-7.68 19.267 19.267 0 0 0-6.376-1.225c-2.806-.126-3.695-.16-10.818-.16-7.122 0-8.035 0-10.82.16-2.179.045-4.334.46-6.374 1.225a13.436 13.436 0 0 0-7.68 7.68 19.115 19.115 0 0 0-1.221 6.372c-.126 2.81-.164 3.699-.164 10.821 0 7.123 0 8.033.164 10.821a19.237 19.237 0 0 0 1.222 6.379 13.446 13.446 0 0 0 7.682 7.677c2.034.796 4.19 1.24 6.373 1.312 2.809.125 3.699.163 10.821.163 7.123 0 8.035 0 10.82-.163A19.223 19.223 0 0 0 52.2 59.92a13.461 13.461 0 0 0 7.68-7.68 19.21 19.21 0 0 0 1.221-6.379c.126-2.805.164-3.695.164-10.82-.006-7.123-.006-8.027-.17-10.818zm-26.113 24.2c-7.45 0-13.484-6.035-13.484-13.484 0-7.45 6.035-13.484 13.484-13.484a13.484 13.484 0 1 1 0 26.967zM49.003 24.1a3.14 3.14 0 0 1-2.905-4.347 3.142 3.142 0 0 1 6.046 1.203 3.141 3.141 0 0 1-3.14 3.144z" fill="#CCC"/><path d="M34.983 43.697a8.759 8.759 0 1 0 0-17.517 8.759 8.759 0 0 0 0 17.517z" fill="#CCC"/></svg>