<svg width="70" height="70" fill="none" xmlns="http://www.w3.org/2000/svg"><path d="M58.333 8.75H11.667a2.917 2.917 0 0 0-2.917 2.917v46.666a2.916 2.916 0 0 0 2.917 2.917h46.666a2.916 2.916 0 0 0 2.917-2.917V11.667a2.917 2.917 0 0 0-2.917-2.917zm-34.01 44.733h-7.794V28.429h7.793v25.054zm-3.898-28.475a4.515 4.515 0 1 1 0-9.031 4.515 4.515 0 0 1 0 9.03zm33.06 28.475h-7.784V41.3c0-2.905-.052-6.641-4.048-6.641-4.054 0-4.67 3.167-4.67 6.437v12.39h-7.778V28.432h7.466v3.424h.108c1.036-1.969 3.579-4.046 7.362-4.046 7.887 0 9.342 5.186 9.342 11.935v13.738h.003z" fill="#CCC"/></svg>